<svg height='100px' width='100px'  fill="#000000" xmlns="http://www.w3.org/2000/svg" xmlns:xlink="http://www.w3.org/1999/xlink" version="1.1" x="0px" y="0px" viewBox="0 0 100 100" enable-background="new 0 0 100 100" xml:space="preserve"><path d="M13.144,1.875v96.25h73.711V1.875H13.144z M84.855,96.125H15.144V3.875h69.711V96.125z"></path><rect x="30.279" y="12.248" width="39.441" height="2"></rect><rect x="39.371" y="18.395" width="21.258" height="2"></rect><rect x="36.234" y="24.541" width="11.013" height="2"></rect><rect x="52.754" y="24.541" width="11.012" height="2"></rect><rect x="22.404" y="39.652" width="23.3" height="2"></rect><rect x="22.404" y="48.872" width="23.3" height="2"></rect><rect x="22.404" y="58.092" width="23.3" height="2"></rect><rect x="22.404" y="67.313" width="23.3" height="2"></rect><rect x="22.404" y="76.532" width="23.3" height="2"></rect><rect x="22.404" y="85.752" width="23.3" height="2"></rect><rect x="54.297" y="39.652" width="23.299" height="2"></rect><rect x="54.297" y="48.872" width="23.299" height="2"></rect><rect x="54.297" y="58.092" width="23.299" height="2"></rect><rect x="54.297" y="67.313" width="23.299" height="2"></rect><rect x="54.297" y="76.532" width="23.299" height="2"></rect><rect x="54.297" y="85.752" width="23.299" height="2"></rect></svg>