<svg height='100px' width='100px'  fill="#000000" xmlns="http://www.w3.org/2000/svg" xmlns:xlink="http://www.w3.org/1999/xlink" version="1.1" x="0px" y="0px" viewBox="0 0 64 64" enable-background="new 0 0 64 64" xml:space="preserve"><g><g><path d="M57.909,17.672H45.96v-2.685c0-3.421-2.775-6.205-6.187-6.205H24.227c-3.412,0-6.187,2.783-6.187,6.205v2.685H6.091    c-1.983,0-3.596,1.617-3.596,3.605v30.335c0,1.988,1.613,3.604,3.596,3.604h51.818c1.983,0,3.596-1.617,3.596-3.604V21.277    C61.505,19.29,59.892,17.672,57.909,17.672z M59.495,51.613c0,0.879-0.711,1.594-1.585,1.594H6.091    c-0.874,0-1.585-0.715-1.585-1.594V21.277c0-0.879,0.711-1.594,1.585-1.594h12.955c0.555,0,1.005-0.45,1.005-1.005v-3.69    c0-2.313,1.874-4.194,4.176-4.194h15.546c2.303,0,4.176,1.881,4.176,4.194v3.69c0,0.555,0.45,1.005,1.005,1.005h12.955    c0.874,0,1.585,0.715,1.585,1.594V51.613z"></path><path d="M41.833,29.19c-0.002-0.003-0.004-0.005-0.007-0.008c-0.001-0.001-0.002-0.003-0.003-0.004    c0-0.001-0.001-0.001-0.002-0.002c-2.262-3.133-5.931-5.004-9.82-5.004s-7.558,1.871-9.82,5.004    c-0.001,0.001-0.002,0.001-0.002,0.002c-0.001,0.001-0.002,0.003-0.003,0.004c-0.002,0.003-0.005,0.005-0.007,0.008    c-0.001,0.001-0.001,0.003-0.002,0.004c-1.563,2.109-2.39,4.611-2.39,7.238c0,6.775,5.484,12.287,12.224,12.287    s12.224-5.512,12.224-12.287c0-2.627-0.827-5.129-2.39-7.238C41.833,29.193,41.833,29.191,41.833,29.19z M32,46.708    c-5.632,0-10.213-4.61-10.213-10.276c0-2.198,0.693-4.292,2.004-6.055c0.001-0.002,0.001-0.004,0.003-0.006    c0.002-0.003,0.005-0.004,0.007-0.006c1.884-2.619,4.95-4.183,8.2-4.183s6.315,1.564,8.2,4.183    c0.001,0.002,0.004,0.003,0.006,0.005c0.001,0.002,0.002,0.005,0.003,0.007c1.311,1.763,2.004,3.856,2.004,6.055    C42.213,42.098,37.632,46.708,32,46.708z"></path><ellipse cx="52.686" cy="25.518" rx="1.95" ry="2.118"></ellipse></g></g></svg>