<svg version="1.1" viewBox="0.0 0.0 593.0 371.0" fill="none" stroke="none" stroke-linecap="square" stroke-miterlimit="10" width="593" height="371" xmlns:xlink="http://www.w3.org/1999/xlink" xmlns="http://www.w3.org/2000/svg"><path fill="#ffffff" d="M0 0L593.0 0L593.0 371.0L0 371.0L0 0Z" fill-rule="nonzero"/><path stroke="#cccccc" stroke-width="1.0" stroke-linecap="butt" d="M56.5 53.5L56.5 331.5" fill-rule="nonzero"/><path stroke="#cccccc" stroke-width="1.0" stroke-linecap="butt" d="M229.5 53.5L229.5 331.5" fill-rule="nonzero"/><path stroke="#cccccc" stroke-width="1.0" stroke-linecap="butt" d="M401.5 53.5L401.5 331.5" fill-rule="nonzero"/><path stroke="#cccccc" stroke-width="1.0" stroke-linecap="butt" d="M574.5 53.5L574.5 331.5" fill-rule="nonzero"/><path stroke="#333333" stroke-width="1.0" stroke-linecap="butt" d="M56.5 331.5L574.5 331.5" fill-rule="nonzero"/><path stroke="#cccccc" stroke-width="1.0" stroke-linecap="butt" d="M56.5 238.5L574.5 238.5" fill-rule="nonzero"/><path stroke="#cccccc" stroke-width="1.0" stroke-linecap="butt" d="M56.5 146.5L574.5 146.5" fill-rule="nonzero"/><path stroke="#cccccc" stroke-width="1.0" stroke-linecap="butt" d="M56.5 53.5L574.5 53.5" fill-rule="nonzero"/><clipPath id="id_0"><path d="M56.55 53.416668L574.45 53.416668L574.45 331.45L56.55 331.45L56.55 53.416668Z" clip-rule="nonzero"/></clipPath><path stroke="#4285f4" stroke-width="2.0" stroke-linecap="butt" clip-path="url(#id_0)" d="M574.45 221.08218L488.13333 125.19201L401.81668 92.62717L315.5 72.60493L229.18333 156.86143L142.86667 202.44823L56.55 157.92732" fill-rule="nonzero"/><path stroke="#db4437" stroke-width="2.0" stroke-linecap="butt" clip-path="url(#id_0)" d="M574.45 122.35178L488.13333 174.99164L401.81668 177.63722L315.5 160.15358L229.18333 190.1842L142.86667 200.7543L56.55 253.75267" fill-rule="nonzero"/><path fill="#000000" fill-opacity="0.0" clip-path="url(#id_0)" d="M577.45 221.08218C577.45 222.73904 576.1069 224.08218 574.45 224.08218C572.79315 224.08218 571.45 222.73904 571.45 221.08218C571.45 219.42534 572.79315 218.08218 574.45 218.08218C576.1069 218.08218 577.45 219.42534 577.45 221.08218Z" fill-rule="nonzero"/><path fill="#000000" fill-opacity="0.0" clip-path="url(#id_0)" d="M491.13333 125.19201C491.13333 126.84886 489.7902 128.19202 488.13333 128.19202C486.47647 128.19202 485.13333 126.84886 485.13333 125.19201C485.13333 123.53516 486.47647 122.19201 488.13333 122.19201C489.7902 122.19201 491.13333 123.53516 491.13333 125.19201Z" fill-rule="nonzero"/><path fill="#000000" fill-opacity="0.0" clip-path="url(#id_0)" d="M404.81668 92.62717C404.81668 94.28402 403.4735 95.62717 401.81668 95.62717C400.15982 95.62717 398.81668 94.28402 398.81668 92.62717C398.81668 90.970314 400.15982 89.62717 401.81668 89.62717C403.4735 89.62717 404.81668 90.970314 404.81668 92.62717Z" fill-rule="nonzero"/><path fill="#000000" fill-opacity="0.0" clip-path="url(#id_0)" d="M318.5 72.60493C318.5 74.26178 317.15686 75.60493 315.5 75.60493C313.84314 75.60493 312.5 74.26178 312.5 72.60493C312.5 70.94807 313.84314 69.60493 315.5 69.60493C317.15686 69.60493 318.5 70.94807 318.5 72.60493Z" fill-rule="nonzero"/><path fill="#000000" fill-opacity="0.0" clip-path="url(#id_0)" d="M232.18333 156.86143C232.18333 158.51828 230.8402 159.86143 229.18333 159.86143C227.52647 159.86143 226.18333 158.51828 226.18333 156.86143C226.18333 155.20457 227.52647 153.86143 229.18333 153.86143C230.8402 153.86143 232.18333 155.20457 232.18333 156.86143Z" fill-rule="nonzero"/><path fill="#000000" fill-opacity="0.0" clip-path="url(#id_0)" d="M145.86667 202.44823C145.86667 204.10509 144.52351 205.44823 142.86667 205.44823C141.20981 205.44823 139.86667 204.10509 139.86667 202.44823C139.86667 200.79138 141.20981 199.44823 142.86667 199.44823C144.52351 199.44823 145.86667 200.79138 145.86667 202.44823Z" fill-rule="nonzero"/><path fill="#000000" fill-opacity="0.0" clip-path="url(#id_0)" d="M59.55 157.92732C59.55 159.58418 58.206856 160.92732 56.55 160.92732C54.893147 160.92732 53.55 159.58418 53.55 157.92732C53.55 156.27046 54.893147 154.92732 56.55 154.92732C58.206856 154.92732 59.55 156.27046 59.55 157.92732Z" fill-rule="nonzero"/><path fill="#000000" fill-opacity="0.0" clip-path="url(#id_0)" d="M577.45 122.35178C577.45 124.008644 576.1069 125.35178 574.45 125.35178C572.79315 125.35178 571.45 124.008644 571.45 122.35178C571.45 120.69493 572.79315 119.35178 574.45 119.35178C576.1069 119.35178 577.45 120.69493 577.45 122.35178Z" fill-rule="nonzero"/><path fill="#000000" fill-opacity="0.0" clip-path="url(#id_0)" d="M491.13333 174.99164C491.13333 176.64848 489.7902 177.99164 488.13333 177.99164C486.47647 177.99164 485.13333 176.64848 485.13333 174.99164C485.13333 173.33478 486.47647 171.99164 488.13333 171.99164C489.7902 171.99164 491.13333 173.33478 491.13333 174.99164Z" fill-rule="nonzero"/><path fill="#000000" fill-opacity="0.0" clip-path="url(#id_0)" d="M404.81668 177.63722C404.81668 179.29407 403.4735 180.63722 401.81668 180.63722C400.15982 180.63722 398.81668 179.29407 398.81668 177.63722C398.81668 175.98036 400.15982 174.63722 401.81668 174.63722C403.4735 174.63722 404.81668 175.98036 404.81668 177.63722Z" fill-rule="nonzero"/><path fill="#000000" fill-opacity="0.0" clip-path="url(#id_0)" d="M318.5 160.15358C318.5 161.81042 317.15686 163.15358 315.5 163.15358C313.84314 163.15358 312.5 161.81042 312.5 160.15358C312.5 158.49672 313.84314 157.15358 315.5 157.15358C317.15686 157.15358 318.5 158.49672 318.5 160.15358Z" fill-rule="nonzero"/><path fill="#000000" fill-opacity="0.0" clip-path="url(#id_0)" d="M232.18333 190.1842C232.18333 191.84105 230.8402 193.1842 229.18333 193.1842C227.52647 193.1842 226.18333 191.84105 226.18333 190.1842C226.18333 188.52734 227.52647 187.1842 229.18333 187.1842C230.8402 187.1842 232.18333 188.52734 232.18333 190.1842Z" fill-rule="nonzero"/><path fill="#000000" fill-opacity="0.0" clip-path="url(#id_0)" d="M145.86667 200.7543C145.86667 202.41115 144.52351 203.7543 142.86667 203.7543C141.20981 203.7543 139.86667 202.41115 139.86667 200.7543C139.86667 199.09744 141.20981 197.7543 142.86667 197.7543C144.52351 197.7543 145.86667 199.09744 145.86667 200.7543Z" fill-rule="nonzero"/><path fill="#000000" fill-opacity="0.0" clip-path="url(#id_0)" d="M59.55 253.75267C59.55 255.40953 58.206856 256.75266 56.55 256.75266C54.893147 256.75266 53.55 255.40953 53.55 253.75267C53.55 252.09581 54.893147 250.75267 56.55 250.75267C58.206856 250.75267 59.55 252.09581 59.55 253.75267Z" fill-rule="nonzero"/><path fill="#757575" d="M24.6125 332.3094Q24.6125 334.21564 23.95625 335.15314Q23.315624 336.075 21.925 336.075Q20.565624 336.075 19.909374 335.16876Q19.253124 334.2625 19.221874 332.45L19.221874 331.0125Q19.221874 329.1219 19.8625 328.21564Q20.51875 327.29376 21.909374 327.29376Q23.284374 327.29376 23.940624 328.1844Q24.596874 329.0594 24.6125 330.90314L24.6125 332.3094ZM23.51875 330.825Q23.51875 329.45 23.128124 328.825Q22.753124 328.1844 21.909374 328.1844Q21.08125 328.1844 20.690624 328.825Q20.315624 329.45 20.315624 330.7469L20.315624 332.48126Q20.315624 333.85626 20.70625 334.52814Q21.1125 335.1844 21.925 335.1844Q22.721874 335.1844 23.1125 334.5594Q23.503124 333.9344 23.51875 332.60626L23.51875 330.825ZM26.33125 337.65314L25.721874 337.23126Q26.26875 336.46564 26.3 335.6375L26.3 334.66876L27.3625 334.66876L27.3625 335.5125Q27.3625 336.10626 27.065624 336.7Q26.76875 337.29376 26.33125 337.65314ZM33.6125 332.3094Q33.6125 334.21564 32.95625 335.15314Q32.315624 336.075 30.925 336.075Q29.565624 336.075 28.909374 335.16876Q28.253124 334.2625 28.221874 332.45L28.221874 331.0125Q28.221874 329.1219 28.8625 328.21564Q29.51875 327.29376 30.909374 327.29376Q32.284374 327.29376 32.940624 328.1844Q33.596874 329.0594 33.6125 330.90314L33.6125 332.3094ZM32.51875 330.825Q32.51875 329.45 32.128124 328.825Q31.753124 328.1844 30.909374 328.1844Q30.08125 328.1844 29.690624 328.825Q29.315624 329.45 29.315624 330.7469L29.315624 332.48126Q29.315624 333.85626 29.70625 334.52814Q30.1125 335.1844 30.925 335.1844Q31.721874 335.1844 32.1125 334.5594Q32.503124 333.9344 32.51875 332.60626L32.51875 330.825ZM40.6125 332.3094Q40.6125 334.21564 39.95625 335.15314Q39.315624 336.075 37.925 336.075Q36.565624 336.075 35.909374 335.16876Q35.253124 334.2625 35.221874 332.45L35.221874 331.0125Q35.221874 329.1219 35.8625 328.21564Q36.51875 327.29376 37.909374 327.29376Q39.284374 327.29376 39.940624 328.1844Q40.596874 329.0594 40.6125 330.90314L40.6125 332.3094ZM39.51875 330.825Q39.51875 329.45 39.128124 328.825Q38.753124 328.1844 37.909374 328.1844Q37.08125 328.1844 36.690624 328.825Q36.315624 329.45 36.315624 330.7469L36.315624 332.48126Q36.315624 333.85626 36.70625 334.52814Q37.1125 335.1844 37.925 335.1844Q38.721874 335.1844 39.1125 334.5594Q39.503124 333.9344 39.51875 332.60626L39.51875 330.825ZM42.159374 329.0594Q42.159374 328.29376 42.64375 327.79376Q43.14375 327.29376 43.909374 327.29376Q44.690624 327.29376 45.175 327.79376Q45.659374 328.29376 45.659374 329.09064L45.659374 329.5125Q45.659374 330.27814 45.159374 330.77814Q44.675 331.2625 43.925 331.2625Q43.159374 331.2625 42.659374 330.77814Q42.159374 330.27814 42.159374 329.46564L42.159374 329.0594ZM42.971874 329.5125Q42.971874 329.96564 43.221874 330.2625Q43.4875 330.5594 43.925 330.5594Q44.346874 330.5594 44.596874 330.27814Q44.846874 329.98126 44.846874 329.48126L44.846874 329.0594Q44.846874 328.60626 44.596874 328.3094Q44.346874 327.9969 43.909374 327.9969Q43.471874 327.9969 43.221874 328.3094Q42.971874 328.60626 42.971874 329.075L42.971874 329.5125ZM46.315624 333.85626Q46.315624 333.09064 46.8 332.60626Q47.3 332.10626 48.065624 332.10626Q48.83125 332.10626 49.315624 332.60626Q49.815624 333.09064 49.815624 333.90314L49.815624 334.3094Q49.815624 335.075 49.33125 335.575Q48.846874 336.075 48.08125 336.075Q47.315624 336.075 46.815624 335.59064Q46.315624 335.09064 46.315624 334.27814L46.315624 333.85626ZM47.128124 334.3094Q47.128124 334.77814 47.378124 335.075Q47.64375 335.3719 48.08125 335.3719Q48.503124 335.3719 48.753124 335.09064Q49.003124 334.79376 49.003124 334.29376L49.003124 333.85626Q49.003124 333.3875 48.7375 333.10626Q48.4875 332.8094 48.065624 332.8094Q47.64375 332.8094 47.378124 333.10626Q47.128124 333.3875 47.128124 333.8875L47.128124 334.3094ZM44.175 335.3094L43.55 334.91876L47.721874 328.2469L48.33125 328.6375L44.175 335.3094Z" fill-rule="nonzero"/><path fill="#757575" d="M24.6125 239.63159Q24.6125 241.53784 23.95625 242.47534Q23.315624 243.39722 21.925 243.39722Q20.565624 243.39722 19.909374 242.49097Q19.253124 241.58472 19.221874 239.77222L19.221874 238.33472Q19.221874 236.44409 19.8625 235.53784Q20.51875 234.61597 21.909374 234.61597Q23.284374 234.61597 23.940624 235.50659Q24.596874 236.38159 24.6125 238.22534L24.6125 239.63159ZM23.51875 238.14722Q23.51875 236.77222 23.128124 236.14722Q22.753124 235.50659 21.909374 235.50659Q21.08125 235.50659 20.690624 236.14722Q20.315624 236.77222 20.315624 238.06909L20.315624 239.80347Q20.315624 241.17847 20.70625 241.85034Q21.1125 242.50659 21.925 242.50659Q22.721874 242.50659 23.1125 241.88159Q23.503124 241.25659 23.51875 239.92847L23.51875 238.14722ZM26.33125 244.97534L25.721874 244.55347Q26.26875 243.78784 26.3 242.95972L26.3 241.99097L27.3625 241.99097L27.3625 242.83472Q27.3625 243.42847 27.065624 244.02222Q26.76875 244.61597 26.33125 244.97534ZM28.753124 238.99097L29.190624 234.74097L33.565624 234.74097L33.565624 235.74097L30.1125 235.74097L29.846874 238.06909Q30.4875 237.69409 31.284374 237.69409Q32.440624 237.69409 33.128124 238.47534Q33.815624 239.24097 33.815624 240.55347Q33.815624 241.86597 33.096874 242.63159Q32.39375 243.39722 31.1125 243.39722Q29.9875 243.39722 29.26875 242.77222Q28.55 242.13159 28.45625 241.02222L29.471874 241.02222Q29.58125 241.75659 30.003124 242.13159Q30.425 242.50659 31.1125 242.50659Q31.8625 242.50659 32.3 241.99097Q32.7375 241.47534 32.7375 240.56909Q32.7375 239.70972 32.26875 239.19409Q31.8 238.67847 31.01875 238.67847Q30.315624 238.67847 29.909374 238.97534L29.628124 239.20972L28.753124 238.99097ZM40.6125 239.63159Q40.6125 241.53784 39.95625 242.47534Q39.315624 243.39722 37.925 243.39722Q36.565624 243.39722 35.909374 242.49097Q35.253124 241.58472 35.221874 239.77222L35.221874 238.33472Q35.221874 236.44409 35.8625 235.53784Q36.51875 234.61597 37.909374 234.61597Q39.284374 234.61597 39.940624 235.50659Q40.596874 236.38159 40.6125 238.22534L40.6125 239.63159ZM39.51875 238.14722Q39.51875 236.77222 39.128124 236.14722Q38.753124 235.50659 37.909374 235.50659Q37.08125 235.50659 36.690624 236.14722Q36.315624 236.77222 36.315624 238.06909L36.315624 239.80347Q36.315624 241.17847 36.70625 241.85034Q37.1125 242.50659 37.925 242.50659Q38.721874 242.50659 39.1125 241.88159Q39.503124 241.25659 39.51875 239.92847L39.51875 238.14722ZM42.159374 236.38159Q42.159374 235.61597 42.64375 235.11597Q43.14375 234.61597 43.909374 234.61597Q44.690624 234.61597 45.175 235.11597Q45.659374 235.61597 45.659374 236.41284L45.659374 236.83472Q45.659374 237.60034 45.159374 238.10034Q44.675 238.58472 43.925 238.58472Q43.159374 238.58472 42.659374 238.10034Q42.159374 237.60034 42.159374 236.78784L42.159374 236.38159ZM42.971874 236.83472Q42.971874 237.28784 43.221874 237.58472Q43.4875 237.88159 43.925 237.88159Q44.346874 237.88159 44.596874 237.60034Q44.846874 237.30347 44.846874 236.80347L44.846874 236.38159Q44.846874 235.92847 44.596874 235.63159Q44.346874 235.31909 43.909374 235.31909Q43.471874 235.31909 43.221874 235.63159Q42.971874 235.92847 42.971874 236.39722L42.971874 236.83472ZM46.315624 241.17847Q46.315624 240.41284 46.8 239.92847Q47.3 239.42847 48.065624 239.42847Q48.83125 239.42847 49.315624 239.92847Q49.815624 240.41284 49.815624 241.22534L49.815624 241.63159Q49.815624 242.39722 49.33125 242.89722Q48.846874 243.39722 48.08125 243.39722Q47.315624 243.39722 46.815624 242.91284Q46.315624 242.41284 46.315624 241.60034L46.315624 241.17847ZM47.128124 241.63159Q47.128124 242.10034 47.378124 242.39722Q47.64375 242.69409 48.08125 242.69409Q48.503124 242.69409 48.753124 242.41284Q49.003124 242.11597 49.003124 241.61597L49.003124 241.17847Q49.003124 240.70972 48.7375 240.42847Q48.4875 240.13159 48.065624 240.13159Q47.64375 240.13159 47.378124 240.42847Q47.128124 240.70972 47.128124 241.20972L47.128124 241.63159ZM44.175 242.63159L43.55 242.24097L47.721874 235.56909L48.33125 235.95972L44.175 242.63159Z" fill-rule="nonzero"/><path fill="#757575" d="M22.815624 150.59445L21.7375 150.59445L21.7375 143.3757L19.55 144.17258L19.55 143.1882L22.659374 142.01633L22.815624 142.01633L22.815624 150.59445ZM26.33125 152.29758L25.721874 151.8757Q26.26875 151.11008 26.3 150.28195L26.3 149.3132L27.3625 149.3132L27.3625 150.15695Q27.3625 150.7507 27.065624 151.34445Q26.76875 151.9382 26.33125 152.29758ZM33.6125 146.95383Q33.6125 148.86008 32.95625 149.79758Q32.315624 150.71945 30.925 150.71945Q29.565624 150.71945 28.909374 149.8132Q28.253124 148.90695 28.221874 147.09445L28.221874 145.65695Q28.221874 143.76633 28.8625 142.86008Q29.51875 141.9382 30.909374 141.9382Q32.284374 141.9382 32.940624 142.82883Q33.596874 143.70383 33.6125 145.54758L33.6125 146.95383ZM32.51875 145.46945Q32.51875 144.09445 32.128124 143.46945Q31.753124 142.82883 30.909374 142.82883Q30.08125 142.82883 29.690624 143.46945Q29.315624 144.09445 29.315624 145.39133L29.315624 147.1257Q29.315624 148.5007 29.70625 149.17258Q30.1125 149.82883 30.925 149.82883Q31.721874 149.82883 32.1125 149.20383Q32.503124 148.57883 32.51875 147.2507L32.51875 145.46945ZM40.6125 146.95383Q40.6125 148.86008 39.95625 149.79758Q39.315624 150.71945 37.925 150.71945Q36.565624 150.71945 35.909374 149.8132Q35.253124 148.90695 35.221874 147.09445L35.221874 145.65695Q35.221874 143.76633 35.8625 142.86008Q36.51875 141.9382 37.909374 141.9382Q39.284374 141.9382 39.940624 142.82883Q40.596874 143.70383 40.6125 145.54758L40.6125 146.95383ZM39.51875 145.46945Q39.51875 144.09445 39.128124 143.46945Q38.753124 142.82883 37.909374 142.82883Q37.08125 142.82883 36.690624 143.46945Q36.315624 144.09445 36.315624 145.39133L36.315624 147.1257Q36.315624 148.5007 36.70625 149.17258Q37.1125 149.82883 37.925 149.82883Q38.721874 149.82883 39.1125 149.20383Q39.503124 148.57883 39.51875 147.2507L39.51875 145.46945ZM42.159374 143.70383Q42.159374 142.9382 42.64375 142.4382Q43.14375 141.9382 43.909374 141.9382Q44.690624 141.9382 45.175 142.4382Q45.659374 142.9382 45.659374 143.73508L45.659374 144.15695Q45.659374 144.92258 45.159374 145.42258Q44.675 145.90695 43.925 145.90695Q43.159374 145.90695 42.659374 145.42258Q42.159374 144.92258 42.159374 144.11008L42.159374 143.70383ZM42.971874 144.15695Q42.971874 144.61008 43.221874 144.90695Q43.4875 145.20383 43.925 145.20383Q44.346874 145.20383 44.596874 144.92258Q44.846874 144.6257 44.846874 144.1257L44.846874 143.70383Q44.846874 143.2507 44.596874 142.95383Q44.346874 142.64133 43.909374 142.64133Q43.471874 142.64133 43.221874 142.95383Q42.971874 143.2507 42.971874 143.71945L42.971874 144.15695ZM46.315624 148.5007Q46.315624 147.73508 46.8 147.2507Q47.3 146.7507 48.065624 146.7507Q48.83125 146.7507 49.315624 147.2507Q49.815624 147.73508 49.815624 148.54758L49.815624 148.95383Q49.815624 149.71945 49.33125 150.21945Q48.846874 150.71945 48.08125 150.71945Q47.315624 150.71945 46.815624 150.23508Q46.315624 149.73508 46.315624 148.92258L46.315624 148.5007ZM47.128124 148.95383Q47.128124 149.42258 47.378124 149.71945Q47.64375 150.01633 48.08125 150.01633Q48.503124 150.01633 48.753124 149.73508Q49.003124 149.4382 49.003124 148.9382L49.003124 148.5007Q49.003124 148.03195 48.7375 147.7507Q48.4875 147.45383 48.065624 147.45383Q47.64375 147.45383 47.378124 147.7507Q47.128124 148.03195 47.128124 148.53195L47.128124 148.95383ZM44.175 149.95383L43.55 149.5632L47.721874 142.89133L48.33125 143.28195L44.175 149.95383Z" fill-rule="nonzero"/><path fill="#757575" d="M22.815624 57.916668L21.7375 57.916668L21.7375 50.697918L19.55 51.494793L19.55 50.510418L22.659374 49.338543L22.815624 49.338543L22.815624 57.916668ZM26.33125 59.619793L25.721874 59.197918Q26.26875 58.432293 26.3 57.604168L26.3 56.635418L27.3625 56.635418L27.3625 57.479168Q27.3625 58.072918 27.065624 58.666668Q26.76875 59.260418 26.33125 59.619793ZM28.753124 53.635418L29.190624 49.385418L33.565624 49.385418L33.565624 50.385418L30.1125 50.385418L29.846874 52.713543Q30.4875 52.338543 31.284374 52.338543Q32.440624 52.338543 33.128124 53.119793Q33.815624 53.885418 33.815624 55.197918Q33.815624 56.510418 33.096874 57.276043Q32.39375 58.041668 31.1125 58.041668Q29.9875 58.041668 29.26875 57.416668Q28.55 56.776043 28.45625 55.666668L29.471874 55.666668Q29.58125 56.401043 30.003124 56.776043Q30.425 57.151043 31.1125 57.151043Q31.8625 57.151043 32.3 56.635418Q32.7375 56.119793 32.7375 55.213543Q32.7375 54.354168 32.26875 53.838543Q31.8 53.322918 31.01875 53.322918Q30.315624 53.322918 29.909374 53.619793L29.628124 53.854168L28.753124 53.635418ZM40.6125 54.276043Q40.6125 56.182293 39.95625 57.119793Q39.315624 58.041668 37.925 58.041668Q36.565624 58.041668 35.909374 57.135418Q35.253124 56.229168 35.221874 54.416668L35.221874 52.979168Q35.221874 51.088543 35.8625 50.182293Q36.51875 49.260418 37.909374 49.260418Q39.284374 49.260418 39.940624 50.151043Q40.596874 51.026043 40.6125 52.869793L40.6125 54.276043ZM39.51875 52.791668Q39.51875 51.416668 39.128124 50.791668Q38.753124 50.151043 37.909374 50.151043Q37.08125 50.151043 36.690624 50.791668Q36.315624 51.416668 36.315624 52.713543L36.315624 54.447918Q36.315624 55.822918 36.70625 56.494793Q37.1125 57.151043 37.925 57.151043Q38.721874 57.151043 39.1125 56.526043Q39.503124 55.901043 39.51875 54.572918L39.51875 52.791668ZM42.159374 51.026043Q42.159374 50.260418 42.64375 49.760418Q43.14375 49.260418 43.909374 49.260418Q44.690624 49.260418 45.175 49.760418Q45.659374 50.260418 45.659374 51.057293L45.659374 51.479168Q45.659374 52.244793 45.159374 52.744793Q44.675 53.229168 43.925 53.229168Q43.159374 53.229168 42.659374 52.744793Q42.159374 52.244793 42.159374 51.432293L42.159374 51.026043ZM42.971874 51.479168Q42.971874 51.932293 43.221874 52.229168Q43.4875 52.526043 43.925 52.526043Q44.346874 52.526043 44.596874 52.244793Q44.846874 51.947918 44.846874 51.447918L44.846874 51.026043Q44.846874 50.572918 44.596874 50.276043Q44.346874 49.963543 43.909374 49.963543Q43.471874 49.963543 43.221874 50.276043Q42.971874 50.572918 42.971874 51.041668L42.971874 51.479168ZM46.315624 55.822918Q46.315624 55.057293 46.8 54.572918Q47.3 54.072918 48.065624 54.072918Q48.83125 54.072918 49.315624 54.572918Q49.815624 55.057293 49.815624 55.869793L49.815624 56.276043Q49.815624 57.041668 49.33125 57.541668Q48.846874 58.041668 48.08125 58.041668Q47.315624 58.041668 46.815624 57.557293Q46.315624 57.057293 46.315624 56.244793L46.315624 55.822918ZM47.128124 56.276043Q47.128124 56.744793 47.378124 57.041668Q47.64375 57.338543 48.08125 57.338543Q48.503124 57.338543 48.753124 57.057293Q49.003124 56.760418 49.003124 56.260418L49.003124 55.822918Q49.003124 55.354168 48.7375 55.072918Q48.4875 54.776043 48.065624 54.776043Q47.64375 54.776043 47.378124 55.072918Q47.128124 55.354168 47.128124 55.854168L47.128124 56.276043ZM44.175 57.276043L43.55 56.885418L47.721874 50.213543L48.33125 50.604168L44.175 57.276043Z" fill-rule="nonzero"/><path fill="#757575" d="M48.846874 349.45L43.253124 349.45L43.253124 348.66876L46.20625 345.3875Q46.8625 344.6375 47.1125 344.1844Q47.3625 343.71564 47.3625 343.21564Q47.3625 342.54376 46.95625 342.1219Q46.565624 341.6844 45.878124 341.6844Q45.08125 341.6844 44.628124 342.15314Q44.175 342.60626 44.175 343.4344L43.096874 343.4344Q43.096874 342.2469 43.846874 341.52814Q44.6125 340.79376 45.878124 340.79376Q47.08125 340.79376 47.76875 341.41876Q48.45625 342.04376 48.45625 343.09064Q48.45625 344.34064 46.846874 346.09064L44.565624 348.5594L48.846874 348.5594L48.846874 349.45ZM55.6125 345.8094Q55.6125 347.71564 54.95625 348.65314Q54.315624 349.575 52.925 349.575Q51.565624 349.575 50.909374 348.66876Q50.253124 347.7625 50.221874 345.95L50.221874 344.5125Q50.221874 342.6219 50.8625 341.71564Q51.51875 340.79376 52.909374 340.79376Q54.284374 340.79376 54.940624 341.6844Q55.596874 342.5594 55.6125 344.40314L55.6125 345.8094ZM54.51875 344.325Q54.51875 342.95 54.128124 342.325Q53.753124 341.6844 52.909374 341.6844Q52.08125 341.6844 51.690624 342.325Q51.315624 342.95 51.315624 344.2469L51.315624 345.98126Q51.315624 347.35626 51.70625 348.02814Q52.1125 348.6844 52.925 348.6844Q53.721874 348.6844 54.1125 348.0594Q54.503124 347.4344 54.51875 346.10626L54.51875 344.325ZM60.815624 349.45L59.7375 349.45L59.7375 342.23126L57.55 343.02814L57.55 342.04376L60.659374 340.8719L60.815624 340.8719L60.815624 349.45ZM69.84688 349.45L64.25313 349.45L64.25313 348.66876L67.20625 345.3875Q67.8625 344.6375 68.1125 344.1844Q68.3625 343.71564 68.3625 343.21564Q68.3625 342.54376 67.95625 342.1219Q67.56563 341.6844 66.87813 341.6844Q66.08125 341.6844 65.62813 342.15314Q65.175 342.60626 65.175 343.4344L64.09688 343.4344Q64.09688 342.2469 64.84688 341.52814Q65.6125 340.79376 66.87813 340.79376Q68.08125 340.79376 68.76875 341.41876Q69.45625 342.04376 69.45625 343.09064Q69.45625 344.34064 67.84688 346.09064L65.56563 348.5594L69.84688 348.5594L69.84688 349.45Z" fill-rule="nonzero"/><path fill="#757575" d="M221.48021 349.45L215.88646 349.45L215.88646 348.66876L218.83958 345.3875Q219.49583 344.6375 219.74583 344.1844Q219.99583 343.71564 219.99583 343.21564Q219.99583 342.54376 219.58958 342.1219Q219.19896 341.6844 218.51146 341.6844Q217.71458 341.6844 217.26146 342.15314Q216.80833 342.60626 216.80833 343.4344L215.73021 343.4344Q215.73021 342.2469 216.48021 341.52814Q217.24583 340.79376 218.51146 340.79376Q219.71458 340.79376 220.40208 341.41876Q221.08958 342.04376 221.08958 343.09064Q221.08958 344.34064 219.48021 346.09064L217.19896 348.5594L221.48021 348.5594L221.48021 349.45ZM228.24583 345.8094Q228.24583 347.71564 227.58958 348.65314Q226.94896 349.575 225.55833 349.575Q224.19896 349.575 223.54271 348.66876Q222.88646 347.7625 222.85521 345.95L222.85521 344.5125Q222.85521 342.6219 223.49583 341.71564Q224.15208 340.79376 225.54271 340.79376Q226.91771 340.79376 227.57396 341.6844Q228.23021 342.5594 228.24583 344.40314L228.24583 345.8094ZM227.15208 344.325Q227.15208 342.95 226.76146 342.325Q226.38646 341.6844 225.54271 341.6844Q224.71458 341.6844 224.32396 342.325Q223.94896 342.95 223.94896 344.2469L223.94896 345.98126Q223.94896 347.35626 224.33958 348.02814Q224.74583 348.6844 225.55833 348.6844Q226.35521 348.6844 226.74583 348.0594Q227.13646 347.4344 227.15208 346.10626L227.15208 344.325ZM233.44896 349.45L232.37083 349.45L232.37083 342.23126L230.18333 343.02814L230.18333 342.04376L233.29271 340.8719L233.44896 340.8719L233.44896 349.45ZM241.46458 346.59064L242.65208 346.59064L242.65208 347.46564L241.46458 347.46564L241.46458 349.45L240.38646 349.45L240.38646 347.46564L236.49583 347.46564L236.49583 346.825L240.30833 340.91876L241.46458 340.91876L241.46458 346.59064ZM237.73021 346.59064L240.38646 346.59064L240.38646 342.40314L240.24583 342.6375L237.73021 346.59064Z" fill-rule="nonzero"/><path fill="#757575" d="M394.11356 349.45L388.5198 349.45L388.5198 348.66876L391.47293 345.3875Q392.12918 344.6375 392.37918 344.1844Q392.62918 343.71564 392.62918 343.21564Q392.62918 342.54376 392.22293 342.1219Q391.8323 341.6844 391.1448 341.6844Q390.34793 341.6844 389.8948 342.15314Q389.44168 342.60626 389.44168 343.4344L388.36356 343.4344Q388.36356 342.2469 389.11356 341.52814Q389.87918 340.79376 391.1448 340.79376Q392.34793 340.79376 393.03543 341.41876Q393.72293 342.04376 393.72293 343.09064Q393.72293 344.34064 392.11356 346.09064L389.8323 348.5594L394.11356 348.5594L394.11356 349.45ZM400.87918 345.8094Q400.87918 347.71564 400.22293 348.65314Q399.5823 349.575 398.19168 349.575Q396.8323 349.575 396.17606 348.66876Q395.5198 347.7625 395.48856 345.95L395.48856 344.5125Q395.48856 342.6219 396.12918 341.71564Q396.78543 340.79376 398.17606 340.79376Q399.55106 340.79376 400.2073 341.6844Q400.86356 342.5594 400.87918 344.40314L400.87918 345.8094ZM399.78543 344.325Q399.78543 342.95 399.3948 342.325Q399.0198 341.6844 398.17606 341.6844Q397.34793 341.6844 396.9573 342.325Q396.5823 342.95 396.5823 344.2469L396.5823 345.98126Q396.5823 347.35626 396.97293 348.02814Q397.37918 348.6844 398.19168 348.6844Q398.98856 348.6844 399.37918 348.0594Q399.7698 347.4344 399.78543 346.10626L399.78543 344.325ZM406.0823 349.45L405.00418 349.45L405.00418 342.23126L402.81668 343.02814L402.81668 342.04376L405.92606 340.8719L406.0823 340.8719L406.0823 349.45ZM413.78543 340.91876L413.78543 341.825L413.5823 341.825Q412.31668 341.85626 411.56668 342.59064Q410.81668 343.3094 410.69168 344.6219Q411.37918 343.85626 412.53543 343.85626Q413.6448 343.85626 414.31668 344.6375Q414.98856 345.41876 414.98856 346.66876Q414.98856 347.98126 414.2698 348.77814Q413.55106 349.575 412.3323 349.575Q411.11356 349.575 410.34793 348.6375Q409.59793 347.6844 409.59793 346.2L409.59793 345.79376Q409.59793 343.4344 410.59793 342.1844Q411.59793 340.9344 413.5823 340.91876L413.78543 340.91876ZM412.36356 344.7625Q411.80106 344.7625 411.3323 345.09064Q410.86356 345.41876 410.67606 345.9344L410.67606 346.325Q410.67606 347.3875 411.1448 348.02814Q411.62918 348.66876 412.3323 348.66876Q413.06668 348.66876 413.48856 348.1375Q413.91043 347.59064 413.91043 346.71564Q413.91043 345.84064 413.48856 345.3094Q413.06668 344.7625 412.36356 344.7625Z" fill-rule="nonzero"/><path fill="#757575" d="M566.7469 349.45L561.15314 349.45L561.15314 348.66876L564.10626 345.3875Q564.7625 344.6375 565.0125 344.1844Q565.2625 343.71564 565.2625 343.21564Q565.2625 342.54376 564.85626 342.1219Q564.46564 341.6844 563.77814 341.6844Q562.98126 341.6844 562.52814 342.15314Q562.075 342.60626 562.075 343.4344L560.9969 343.4344Q560.9969 342.2469 561.7469 341.52814Q562.5125 340.79376 563.77814 340.79376Q564.98126 340.79376 565.66876 341.41876Q566.35626 342.04376 566.35626 343.09064Q566.35626 344.34064 564.7469 346.09064L562.46564 348.5594L566.7469 348.5594L566.7469 349.45ZM573.5125 345.8094Q573.5125 347.71564 572.85626 348.65314Q572.21564 349.575 570.825 349.575Q569.46564 349.575 568.8094 348.66876Q568.15314 347.7625 568.1219 345.95L568.1219 344.5125Q568.1219 342.6219 568.7625 341.71564Q569.41876 340.79376 570.8094 340.79376Q572.1844 340.79376 572.84064 341.6844Q573.4969 342.5594 573.5125 344.40314L573.5125 345.8094ZM572.41876 344.325Q572.41876 342.95 572.02814 342.325Q571.65314 341.6844 570.8094 341.6844Q569.98126 341.6844 569.59064 342.325Q569.21564 342.95 569.21564 344.2469L569.21564 345.98126Q569.21564 347.35626 569.60626 348.02814Q570.0125 348.6844 570.825 348.6844Q571.6219 348.6844 572.0125 348.0594Q572.40314 347.4344 572.41876 346.10626L572.41876 344.325ZM578.71564 349.45L577.6375 349.45L577.6375 342.23126L575.45 343.02814L575.45 342.04376L578.5594 340.8719L578.71564 340.8719L578.71564 349.45ZM587.34064 343.1375Q587.34064 343.77814 586.9969 344.27814Q586.65314 344.77814 586.09064 345.0594Q586.7469 345.34064 587.1375 345.90314Q587.52814 346.45 587.52814 347.15314Q587.52814 348.2469 586.77814 348.91876Q586.04376 349.575 584.825 349.575Q583.59064 349.575 582.84064 348.91876Q582.10626 348.2469 582.10626 347.15314Q582.10626 346.45 582.48126 345.90314Q582.85626 345.34064 583.52814 345.0594Q582.96564 344.77814 582.6375 344.27814Q582.3094 343.77814 582.3094 343.1375Q582.3094 342.0594 582.9969 341.4344Q583.6844 340.79376 584.825 340.79376Q585.95 340.79376 586.6375 341.4344Q587.34064 342.0594 587.34064 343.1375ZM586.45 347.1219Q586.45 346.40314 585.9969 345.96564Q585.54376 345.5125 584.8094 345.5125Q584.075 345.5125 583.6219 345.96564Q583.1844 346.40314 583.1844 347.1375Q583.1844 347.85626 583.6219 348.27814Q584.0594 348.6844 584.825 348.6844Q585.575 348.6844 586.0125 348.2625Q586.45 347.84064 586.45 347.1219ZM584.825 341.6844Q584.1844 341.6844 583.77814 342.09064Q583.3875 342.48126 583.3875 343.16876Q583.3875 343.8094 583.77814 344.21564Q584.16876 344.6219 584.8094 344.6219Q585.46564 344.6219 585.85626 344.21564Q586.2469 343.8094 586.2469 343.16876Q586.2469 342.5125 585.84064 342.10626Q585.4344 341.6844 584.825 341.6844Z" fill-rule="nonzero"/><path stroke="#4285f4" stroke-width="4.0" stroke-linecap="butt" d="M213.5 26.05L225.5 26.05" fill-rule="nonzero"/><path fill="#757575" d="M239.67188 27.45625Q239.67188 28.89375 239.01562 29.784374Q238.35938 30.675 237.21875 30.675Q236.0625 30.675 235.40625 29.940624L235.40625 32.9875L234.32812 32.9875L234.32812 24.20625L235.3125 24.20625L235.35938 24.909374Q236.03125 24.096874 237.20312 24.096874Q238.34375 24.096874 239.0 24.95625Q239.67188 25.815624 239.67188 27.346874L239.67188 27.45625ZM238.59375 27.33125Q238.59375 26.253124 238.125 25.64375Q237.67188 25.01875 236.875 25.01875Q235.89062 25.01875 235.40625 25.878124L235.40625 28.909374Q235.89062 29.784374 236.89062 29.784374Q237.67188 29.784374 238.125 29.175Q238.59375 28.55 238.59375 27.33125ZM241.03125 27.315624Q241.03125 26.39375 241.39062 25.64375Q241.76562 24.89375 242.42188 24.503124Q243.07812 24.096874 243.90625 24.096874Q245.20312 24.096874 246.0 24.9875Q246.8125 25.878124 246.8125 27.378124L246.8125 27.45625Q246.8125 28.378124 246.45312 29.1125Q246.09375 29.846874 245.4375 30.26875Q244.78125 30.675 243.92188 30.675Q242.64062 30.675 241.82812 29.784374Q241.03125 28.878124 241.03125 27.39375L241.03125 27.315624ZM242.125 27.45625Q242.125 28.503124 242.60938 29.14375Q243.10938 29.784374 243.92188 29.784374Q244.75 29.784374 245.23438 29.14375Q245.71875 28.4875 245.71875 27.315624Q245.71875 26.284374 245.21875 25.64375Q244.73438 24.9875 243.90625 24.9875Q243.10938 24.9875 242.60938 25.628124Q242.125 26.253124 242.125 27.45625ZM253.67188 27.45625Q253.67188 28.89375 253.01562 29.784374Q252.35938 30.675 251.21875 30.675Q250.0625 30.675 249.40625 29.940624L249.40625 32.9875L248.32812 32.9875L248.32812 24.20625L249.3125 24.20625L249.35938 24.909374Q250.03125 24.096874 251.20312 24.096874Q252.34375 24.096874 253.0 24.95625Q253.67188 25.815624 253.67188 27.346874L253.67188 27.45625ZM252.59375 27.33125Q252.59375 26.253124 252.125 25.64375Q251.67188 25.01875 250.875 25.01875Q249.89062 25.01875 249.40625 25.878124L249.40625 28.909374Q249.89062 29.784374 250.89062 29.784374Q251.67188 29.784374 252.125 29.175Q252.59375 28.55 252.59375 27.33125ZM259.23438 29.925Q258.60938 30.675 257.375 30.675Q256.35938 30.675 255.82812 30.08125Q255.29688 29.4875 255.29688 28.33125L255.29688 24.20625L256.375 24.20625L256.375 28.3Q256.375 29.753124 257.54688 29.753124Q258.79688 29.753124 259.20312 28.815624L259.20312 24.20625L260.29688 24.20625L260.29688 30.55L259.26562 30.55L259.23438 29.925ZM263.5 30.55L262.42188 30.55L262.42188 21.55L263.5 21.55L263.5 30.55ZM269.23438 30.55Q269.14062 30.3625 269.07812 29.878124Q268.32812 30.675 267.28125 30.675Q266.34375 30.675 265.73438 30.14375Q265.14062 29.6125 265.14062 28.784374Q265.14062 27.8 265.89062 27.253124Q266.64062 26.70625 268.01562 26.70625L269.0625 26.70625L269.0625 26.20625Q269.0625 25.64375 268.71875 25.315624Q268.39062 24.971874 267.71875 24.971874Q267.14062 24.971874 266.75 25.26875Q266.35938 25.55 266.35938 25.971874L265.26562 25.971874Q265.26562 25.4875 265.59375 25.05Q265.9375 24.6125 266.51562 24.3625Q267.09375 24.096874 267.78125 24.096874Q268.89062 24.096874 269.5 24.64375Q270.125 25.190624 270.15625 26.14375L270.15625 29.065624Q270.15625 29.940624 270.375 30.45625L270.375 30.55L269.23438 30.55ZM267.4375 29.721874Q267.95312 29.721874 268.40625 29.45625Q268.85938 29.190624 269.0625 28.76875L269.0625 27.471874L268.21875 27.471874Q266.21875 27.471874 266.21875 28.64375Q266.21875 29.14375 266.5625 29.440624Q266.90625 29.721874 267.4375 29.721874ZM273.79688 22.675L273.79688 24.20625L274.96875 24.20625L274.96875 25.05L273.79688 25.05L273.79688 28.971874Q273.79688 29.3625 273.95312 29.55Q274.10938 29.7375 274.48438 29.7375Q274.67188 29.7375 275.0 29.675L275.0 30.55Q274.57812 30.675 274.17188 30.675Q273.45312 30.675 273.07812 30.2375Q272.70312 29.784374 272.70312 28.971874L272.70312 25.05L271.54688 25.05L271.54688 24.20625L272.70312 24.20625L272.70312 22.675L273.79688 22.675ZM277.5 30.55L276.42188 30.55L276.42188 24.20625L277.5 24.20625L277.5 30.55ZM276.32812 22.534374Q276.32812 22.26875 276.48438 22.08125Q276.65625 21.89375 276.96875 21.89375Q277.28125 21.89375 277.4375 22.08125Q277.60938 22.26875 277.60938 22.534374Q277.60938 22.784374 277.4375 22.971874Q277.28125 23.14375 276.96875 23.14375Q276.65625 23.14375 276.48438 22.971874Q276.32812 22.784374 276.32812 22.534374ZM279.03125 27.315624Q279.03125 26.39375 279.39062 25.64375Q279.76562 24.89375 280.42188 24.503124Q281.07812 24.096874 281.90625 24.096874Q283.20312 24.096874 284.0 24.9875Q284.8125 25.878124 284.8125 27.378124L284.8125 27.45625Q284.8125 28.378124 284.45312 29.1125Q284.09375 29.846874 283.4375 30.26875Q282.78125 30.675 281.92188 30.675Q280.64062 30.675 279.82812 29.784374Q279.03125 28.878124 279.03125 27.39375L279.03125 27.315624ZM280.125 27.45625Q280.125 28.503124 280.60938 29.14375Q281.10938 29.784374 281.92188 29.784374Q282.75 29.784374 283.23438 29.14375Q283.71875 28.4875 283.71875 27.315624Q283.71875 26.284374 283.21875 25.64375Q282.73438 24.9875 281.90625 24.9875Q281.10938 24.9875 280.60938 25.628124Q280.125 26.253124 280.125 27.45625ZM287.34375 24.20625L287.375 25.003124Q288.10938 24.096874 289.28125 24.096874Q291.29688 24.096874 291.3125 26.3625L291.3125 30.55L290.21875 30.55L290.21875 26.346874Q290.21875 25.675 289.90625 25.346874Q289.60938 25.01875 288.95312 25.01875Q288.42188 25.01875 288.01562 25.3Q287.625 25.58125 287.40625 26.034374L287.40625 30.55L286.32812 30.55L286.32812 24.20625L287.34375 24.20625Z" fill-rule="nonzero"/><path stroke="#db4437" stroke-width="4.0" stroke-linecap="butt" d="M308.5 26.05L320.5 26.05" fill-rule="nonzero"/><path fill="#757575" d="M332.39062 25.175Q332.14062 25.14375 331.85938 25.14375Q330.78125 25.14375 330.40625 26.05L330.40625 30.55L329.32812 30.55L329.32812 24.20625L330.375 24.20625L330.39062 24.940624Q330.92188 24.096874 331.90625 24.096874Q332.21875 24.096874 332.39062 24.175L332.39062 25.175ZM335.95312 30.675Q334.65625 30.675 333.84375 29.83125Q333.04688 28.971874 333.04688 27.55L333.04688 27.3625Q333.04688 26.409374 333.40625 25.675Q333.76562 24.925 334.40625 24.51875Q335.0625 24.096874 335.8125 24.096874Q337.04688 24.096874 337.73438 24.909374Q338.42188 25.721874 338.42188 27.2375L338.42188 27.690624L334.125 27.690624Q334.15625 28.628124 334.67188 29.20625Q335.20312 29.784374 336.01562 29.784374Q336.57812 29.784374 336.96875 29.55Q337.375 29.315624 337.6875 28.925L338.34375 29.440624Q337.54688 30.675 335.95312 30.675ZM335.8125 24.9875Q335.15625 24.9875 334.70312 25.471874Q334.26562 25.940624 334.17188 26.8L337.34375 26.8L337.34375 26.721874Q337.29688 25.89375 336.89062 25.440624Q336.5 24.9875 335.8125 24.9875ZM340.34375 24.20625L340.375 25.003124Q341.10938 24.096874 342.28125 24.096874Q344.29688 24.096874 344.3125 26.3625L344.3125 30.55L343.21875 30.55L343.21875 26.346874Q343.21875 25.675 342.90625 25.346874Q342.60938 25.01875 341.95312 25.01875Q341.42188 25.01875 341.01562 25.3Q340.625 25.58125 340.40625 26.034374L340.40625 30.55L339.32812 30.55L339.32812 24.20625L340.34375 24.20625ZM347.79688 22.675L347.79688 24.20625L348.96875 24.20625L348.96875 25.05L347.79688 25.05L347.79688 28.971874Q347.79688 29.3625 347.95312 29.55Q348.10938 29.7375 348.48438 29.7375Q348.67188 29.7375 349.0 29.675L349.0 30.55Q348.57812 30.675 348.17188 30.675Q347.45312 30.675 347.07812 30.2375Q346.70312 29.784374 346.70312 28.971874L346.70312 25.05L345.54688 25.05L345.54688 24.20625L346.70312 24.20625L346.70312 22.675L347.79688 22.675ZM357.23438 29.925Q356.60938 30.675 355.375 30.675Q354.35938 30.675 353.82812 30.08125Q353.29688 29.4875 353.29688 28.33125L353.29688 24.20625L354.375 24.20625L354.375 28.3Q354.375 29.753124 355.54688 29.753124Q356.79688 29.753124 357.20312 28.815624L357.20312 24.20625L358.29688 24.20625L358.29688 30.55L357.26562 30.55L357.23438 29.925ZM361.34375 24.20625L361.375 25.003124Q362.10938 24.096874 363.28125 24.096874Q365.29688 24.096874 365.3125 26.3625L365.3125 30.55L364.21875 30.55L364.21875 26.346874Q364.21875 25.675 363.90625 25.346874Q363.60938 25.01875 362.95312 25.01875Q362.42188 25.01875 362.01562 25.3Q361.625 25.58125 361.40625 26.034374L361.40625 30.55L360.32812 30.55L360.32812 24.20625L361.34375 24.20625ZM368.5 30.55L367.42188 30.55L367.42188 24.20625L368.5 24.20625L368.5 30.55ZM367.32812 22.534374Q367.32812 22.26875 367.48438 22.08125Q367.65625 21.89375 367.96875 21.89375Q368.28125 21.89375 368.4375 22.08125Q368.60938 22.26875 368.60938 22.534374Q368.60938 22.784374 368.4375 22.971874Q368.28125 23.14375 367.96875 23.14375Q367.65625 23.14375 367.48438 22.971874Q367.32812 22.784374 367.32812 22.534374ZM371.79688 22.675L371.79688 24.20625L372.96875 24.20625L372.96875 25.05L371.79688 25.05L371.79688 28.971874Q371.79688 29.3625 371.95312 29.55Q372.10938 29.7375 372.48438 29.7375Q372.67188 29.7375 373.0 29.675L373.0 30.55Q372.57812 30.675 372.17188 30.675Q371.45312 30.675 371.07812 30.2375Q370.70312 29.784374 370.70312 28.971874L370.70312 25.05L369.54688 25.05L369.54688 24.20625L370.70312 24.20625L370.70312 22.675L371.79688 22.675ZM378.01562 28.8625Q378.01562 28.425 377.67188 28.190624Q377.34375 27.940624 376.51562 27.76875Q375.70312 27.596874 375.21875 27.346874Q374.73438 27.096874 374.5 26.76875Q374.28125 26.425 374.28125 25.95625Q374.28125 25.175 374.9375 24.64375Q375.59375 24.096874 376.625 24.096874Q377.70312 24.096874 378.35938 24.659374Q379.03125 25.20625 379.03125 26.065624L377.95312 26.065624Q377.95312 25.628124 377.5625 25.315624Q377.1875 24.9875 376.625 24.9875Q376.03125 24.9875 375.6875 25.253124Q375.35938 25.503124 375.35938 25.909374Q375.35938 26.3 375.67188 26.503124Q375.98438 26.70625 376.79688 26.89375Q377.60938 27.065624 378.10938 27.315624Q378.60938 27.565624 378.84375 27.925Q379.09375 28.284374 379.09375 28.784374Q379.09375 29.64375 378.40625 30.159374Q377.73438 30.675 376.65625 30.675Q375.89062 30.675 375.29688 30.409374Q374.71875 30.128124 374.39062 29.64375Q374.0625 29.159374 374.0625 28.596874L375.14062 28.596874Q375.17188 29.14375 375.57812 29.471874Q375.98438 29.784374 376.65625 29.784374Q377.26562 29.784374 377.64062 29.534374Q378.01562 29.284374 378.01562 28.8625Z" fill-rule="nonzero"/></svg>